<svg xmlns="http://www.w3.org/2000/svg" viewBox="0 0 466.34 72.68"><defs><style>.cls-1{fill:#1c3341;}.cls-2{fill:#e3483a;}.cls-3{fill:#f29d36;}.cls-4{fill:#8abcbf;}.cls-5{fill:#752a4e;}.cls-6{fill:#f8c8a1;}.cls-7{fill:#be2d31;}</style></defs><g id="Layer_2" data-name="Layer 2"><g id="Layer_1-2" data-name="Layer 1"><polygon class="cls-1" points="0.92 44.33 3.66 44.33 9.7 54.66 15.74 44.33 18.42 44.33 19.34 64.18 16.54 64.18 15.89 48.95 10.29 58.32 8.87 58.32 3.36 49.06 2.68 64.18 0 64.18 0.92 44.33"/><path class="cls-1" d="M23.15,50.34h2.68v8.13a4.17,4.17,0,0,0,.8,2.84,3,3,0,0,0,2.32.88,3.53,3.53,0,0,0,1.92-.48,3.94,3.94,0,0,0,1.24-1.23,5.36,5.36,0,0,0,.66-1.73,10,10,0,0,0,.2-2V50.34h2.67v13c0,.29,0,.57,0,.85H33.12L33,62.13c-.18.23-.4.49-.66.77a4.34,4.34,0,0,1-.95.76,6.09,6.09,0,0,1-1.31.58,5.47,5.47,0,0,1-1.69.24,4.85,4.85,0,0,1-4-1.56,6.53,6.53,0,0,1-1.28-4.27Z"/><path class="cls-1" d="M40.26,60.7A5.73,5.73,0,0,0,42,61.89a6.06,6.06,0,0,0,2.41.44,5,5,0,0,0,2.23-.43,1.41,1.41,0,0,0,.9-1.35,1.63,1.63,0,0,0-.2-.82,1.68,1.68,0,0,0-.65-.61,5.81,5.81,0,0,0-1.22-.49c-.51-.15-1.14-.31-1.89-.49A11.18,11.18,0,0,1,42,57.66a5.3,5.3,0,0,1-1.42-.79,4,4,0,0,1-1-1.18A3.43,3.43,0,0,1,39.22,54a3.34,3.34,0,0,1,.46-1.77A4.16,4.16,0,0,1,40.91,51a6,6,0,0,1,1.74-.78,7.5,7.5,0,0,1,2-.27,8.76,8.76,0,0,1,3,.46,7.19,7.19,0,0,1,2.22,1.29L48.44,53.5a5.2,5.2,0,0,0-1.56-1,5.71,5.71,0,0,0-2.19-.39,4.28,4.28,0,0,0-2,.42,1.46,1.46,0,0,0,.25,2.69,16.94,16.94,0,0,0,2.69.82,15.87,15.87,0,0,1,1.83.55,5.3,5.3,0,0,1,1.49.8,3.64,3.64,0,0,1,1,1.2,3.71,3.71,0,0,1,.37,1.73,3.53,3.53,0,0,1-.47,1.83,4.27,4.27,0,0,1-1.28,1.33,6.2,6.2,0,0,1-1.85.8,8.54,8.54,0,0,1-2.17.27q-3.93,0-5.89-2.12Z"/><path class="cls-1" d="M53.35,44.87h3v3h-3Zm.18,5.47h2.68V64.18H53.53Z"/><path class="cls-1" d="M72,62.28A7,7,0,0,1,69.76,64a7.4,7.4,0,0,1-3.14.64,8.08,8.08,0,0,1-3-.55,6.48,6.48,0,0,1-3.74-3.84,8.59,8.59,0,0,1-.5-3,7.77,7.77,0,0,1,.53-2.86,7.12,7.12,0,0,1,6.73-4.49,7.31,7.31,0,0,1,3.09.62A6.92,6.92,0,0,1,72,52.22l-1.75,1.69a4.63,4.63,0,0,0-1.52-1.22,4.76,4.76,0,0,0-2.11-.44,4.4,4.4,0,0,0-1.92.4,4.09,4.09,0,0,0-1.43,1.1,5,5,0,0,0-.89,1.61,5.83,5.83,0,0,0,0,3.75,5,5,0,0,0,.89,1.6,4.25,4.25,0,0,0,3.35,1.54,5,5,0,0,0,2.18-.47,4.37,4.37,0,0,0,1.6-1.23Z"/><path class="cls-1" d="M97.35,60.7a6.76,6.76,0,0,1-1,1.22,9.09,9.09,0,0,1-1.66,1.29,10.33,10.33,0,0,1-2.27,1,9,9,0,0,1-2.82.42,10.08,10.08,0,0,1-4-.78,9.12,9.12,0,0,1-3.12-2.15,10.1,10.1,0,0,1-2-3.28,11.88,11.88,0,0,1,0-8.2,10.55,10.55,0,0,1,2-3.33,9.33,9.33,0,0,1,3.14-2.24,9.75,9.75,0,0,1,4.06-.82,9.89,9.89,0,0,1,2.83.38,9.32,9.32,0,0,1,2.18,1,8.44,8.44,0,0,1,1.61,1.27,8,8,0,0,1,1.08,1.31l-2,1.72a10.6,10.6,0,0,0-.85-1,5.76,5.76,0,0,0-1.17-1,6.8,6.8,0,0,0-1.58-.75,6.72,6.72,0,0,0-2-.29,6.6,6.6,0,0,0-2.93.62,6.48,6.48,0,0,0-2.2,1.7,7.34,7.34,0,0,0-1.39,2.5,9.43,9.43,0,0,0-.47,3,9.07,9.07,0,0,0,.49,3,7.4,7.4,0,0,0,1.38,2.46,6.27,6.27,0,0,0,2.17,1.63,6.66,6.66,0,0,0,2.86.6,7.1,7.1,0,0,0,2.3-.34,6.61,6.61,0,0,0,1.64-.82,6.33,6.33,0,0,0,1.1-1l.73-.82Z"/><path class="cls-1" d="M106.31,64.6a7.5,7.5,0,0,1-3-.58,6.94,6.94,0,0,1-2.3-1.6,7.45,7.45,0,0,1-1.52-2.33,7.61,7.61,0,0,1,0-5.68,7.38,7.38,0,0,1,1.52-2.34,7.07,7.07,0,0,1,2.3-1.59,7.33,7.33,0,0,1,3-.58,7.25,7.25,0,0,1,2.92.58,7.22,7.22,0,0,1,3.85,3.93,7.61,7.61,0,0,1,0,5.68,7.48,7.48,0,0,1-1.53,2.33,7.24,7.24,0,0,1-2.32,1.6,7.42,7.42,0,0,1-2.92.58m0-2.32a4.29,4.29,0,0,0,1.94-.44,4.37,4.37,0,0,0,1.45-1.13,4.86,4.86,0,0,0,.91-1.6,5.67,5.67,0,0,0,.31-1.86,5.5,5.5,0,0,0-.31-1.83,5,5,0,0,0-.92-1.62,4.68,4.68,0,0,0-1.46-1.15,4.17,4.17,0,0,0-1.92-.43,4.21,4.21,0,0,0-1.93.43,4.55,4.55,0,0,0-1.46,1.13,4.91,4.91,0,0,0-.91,1.61,5.59,5.59,0,0,0-.31,1.86,5.47,5.47,0,0,0,.31,1.84,5.15,5.15,0,0,0,.92,1.61,4.77,4.77,0,0,0,1.46,1.14,4.18,4.18,0,0,0,1.92.44"/><path class="cls-1" d="M116.67,64.18v-13c0-.19,0-.48,0-.88h2.55l.09,2.09a7.21,7.21,0,0,1,.63-.79,4.77,4.77,0,0,1,.92-.79,5.16,5.16,0,0,1,1.27-.6,5.64,5.64,0,0,1,1.68-.23,5,5,0,0,1,2.66.64,4.29,4.29,0,0,1,1.65,1.86,8.68,8.68,0,0,1,2-1.74,5.47,5.47,0,0,1,3-.76,4.8,4.8,0,0,1,4,1.59,6.63,6.63,0,0,1,1.28,4.27v8.3h-2.68V56.09a4.34,4.34,0,0,0-.76-2.84,2.71,2.71,0,0,0-2.22-.91,3.43,3.43,0,0,0-1.53.34,4.06,4.06,0,0,0-1.22.91,3.93,3.93,0,0,0-.8,1.32,4.52,4.52,0,0,0-.29,1.59v7.68h-2.67V56.09a4.4,4.4,0,0,0-.76-2.84,2.69,2.69,0,0,0-2.19-.91,3.4,3.4,0,0,0-1.84.47,3.77,3.77,0,0,0-1.21,1.24,5.16,5.16,0,0,0-.65,1.74,10,10,0,0,0-.2,2v6.43Z"/><path class="cls-1" d="M142,64.18v-13c0-.19,0-.48,0-.88h2.55l.09,2.09a7.21,7.21,0,0,1,.63-.79,4.77,4.77,0,0,1,.92-.79,5.16,5.16,0,0,1,1.27-.6,5.64,5.64,0,0,1,1.68-.23,5,5,0,0,1,2.66.64,4.29,4.29,0,0,1,1.65,1.86,8.68,8.68,0,0,1,2-1.74,5.47,5.47,0,0,1,3-.76,4.8,4.8,0,0,1,4,1.59,6.63,6.63,0,0,1,1.28,4.27v8.3H161V56.09a4.34,4.34,0,0,0-.76-2.84,2.71,2.71,0,0,0-2.22-.91,3.43,3.43,0,0,0-1.53.34,4.19,4.19,0,0,0-1.22.91,3.93,3.93,0,0,0-.8,1.32,4.52,4.52,0,0,0-.29,1.59v7.68h-2.67V56.09a4.34,4.34,0,0,0-.76-2.84,2.69,2.69,0,0,0-2.19-.91,3.4,3.4,0,0,0-1.84.47,3.77,3.77,0,0,0-1.21,1.24,5.16,5.16,0,0,0-.65,1.74,10,10,0,0,0-.2,2v6.43Z"/><path class="cls-1" d="M167.19,44.87h3v3h-3Zm.18,5.47H170V64.18h-2.67Z"/><path class="cls-1" d="M174.74,60.7a5.89,5.89,0,0,0,1.79,1.19,6,6,0,0,0,2.41.44,5.07,5.07,0,0,0,2.23-.43,1.4,1.4,0,0,0,.89-1.35,1.63,1.63,0,0,0-.19-.82,1.75,1.75,0,0,0-.65-.61,5.81,5.81,0,0,0-1.22-.49c-.51-.15-1.14-.31-1.89-.49a11.18,11.18,0,0,1-1.59-.48,5.3,5.3,0,0,1-1.42-.79,3.82,3.82,0,0,1-1-1.18A3.43,3.43,0,0,1,173.7,54a3.34,3.34,0,0,1,.47-1.77A4,4,0,0,1,175.4,51a5.74,5.74,0,0,1,1.74-.78,7.39,7.39,0,0,1,2-.27,8.8,8.8,0,0,1,3,.46,7.19,7.19,0,0,1,2.22,1.29l-1.46,1.85a5.13,5.13,0,0,0-1.57-1,5.62,5.62,0,0,0-2.18-.39,4.33,4.33,0,0,0-2.06.42,1.47,1.47,0,0,0,.26,2.69,16.94,16.94,0,0,0,2.69.82,16.5,16.5,0,0,1,1.83.55,5.3,5.3,0,0,1,1.49.8,3.77,3.77,0,0,1,1,1.2,3.71,3.71,0,0,1,.37,1.73,3.53,3.53,0,0,1-.47,1.83A4.27,4.27,0,0,1,183,63.53a6.2,6.2,0,0,1-1.85.8,8.6,8.6,0,0,1-2.17.27q-3.93,0-5.89-2.12Z"/><path class="cls-1" d="M188.79,60.7a5.73,5.73,0,0,0,1.78,1.19,6.06,6.06,0,0,0,2.41.44,5,5,0,0,0,2.23-.43,1.41,1.41,0,0,0,.9-1.35,1.63,1.63,0,0,0-.2-.82,1.68,1.68,0,0,0-.65-.61,5.59,5.59,0,0,0-1.22-.49c-.51-.15-1.14-.31-1.89-.49a11.58,11.58,0,0,1-1.59-.48,5.3,5.3,0,0,1-1.42-.79,4,4,0,0,1-1-1.18,3.43,3.43,0,0,1-.38-1.69,3.34,3.34,0,0,1,.46-1.77A4.16,4.16,0,0,1,189.44,51a6,6,0,0,1,1.74-.78,7.5,7.5,0,0,1,2-.27,8.76,8.76,0,0,1,3,.46,7.19,7.19,0,0,1,2.22,1.29L197,53.5a5.2,5.2,0,0,0-1.56-1,5.71,5.71,0,0,0-2.19-.39,4.28,4.28,0,0,0-2.05.42,1.46,1.46,0,0,0,.25,2.69,17.28,17.28,0,0,0,2.69.82,15.87,15.87,0,0,1,1.83.55,5.17,5.17,0,0,1,1.49.8,3.64,3.64,0,0,1,1,1.2,3.71,3.71,0,0,1,.37,1.73,3.44,3.44,0,0,1-.47,1.83,4.16,4.16,0,0,1-1.28,1.33,6.2,6.2,0,0,1-1.85.8,8.54,8.54,0,0,1-2.17.27q-3.93,0-5.89-2.12Z"/><path class="cls-1" d="M201.88,44.87h3v3h-3Zm.18,5.47h2.68V64.18h-2.68Z"/><path class="cls-1" d="M215.21,64.6a7.5,7.5,0,0,1-3-.58,6.94,6.94,0,0,1-2.3-1.6,7.45,7.45,0,0,1-1.52-2.33,7.61,7.61,0,0,1,0-5.68A7.38,7.38,0,0,1,210,52.07a7.07,7.07,0,0,1,2.3-1.59,7.33,7.33,0,0,1,3-.58,7.25,7.25,0,0,1,2.92.58A7.22,7.22,0,0,1,222,54.41a7.61,7.61,0,0,1,0,5.68,7.48,7.48,0,0,1-1.53,2.33,7.24,7.24,0,0,1-2.32,1.6,7.42,7.42,0,0,1-2.92.58m0-2.32a4.22,4.22,0,0,0,1.93-.44,4.41,4.41,0,0,0,1.46-1.13,4.86,4.86,0,0,0,.91-1.6,5.67,5.67,0,0,0,.31-1.86,5.5,5.5,0,0,0-.31-1.83,5,5,0,0,0-.92-1.62,4.8,4.8,0,0,0-1.46-1.15,4.17,4.17,0,0,0-1.92-.43,4.25,4.25,0,0,0-1.94.43,4.51,4.51,0,0,0-1.45,1.13,4.91,4.91,0,0,0-.91,1.61,5.59,5.59,0,0,0-.31,1.86,5.47,5.47,0,0,0,.31,1.84,5,5,0,0,0,.92,1.61,4.65,4.65,0,0,0,1.46,1.14,4.15,4.15,0,0,0,1.92.44"/><path class="cls-1" d="M225.56,64.18v-13c0-.19,0-.48,0-.88h2.56l.09,2.09c.18-.24.4-.5.66-.79a4.2,4.2,0,0,1,.95-.79,5.55,5.55,0,0,1,1.32-.6,6,6,0,0,1,1.71-.23,4.92,4.92,0,0,1,4,1.57,6.54,6.54,0,0,1,1.31,4.29v8.3h-2.68V56.09a4.12,4.12,0,0,0-.83-2.84,3,3,0,0,0-2.35-.91,3.44,3.44,0,0,0-3.17,1.71,5.46,5.46,0,0,0-.67,1.72,9.38,9.38,0,0,0-.21,2v6.43Z"/><polygon class="cls-1" points="49.33 13.04 47.49 11.17 45.65 13.04 47.49 14.92 49.33 13.04"/><polygon class="cls-1" points="53.68 13.04 51.84 11.17 49.99 13.04 51.84 14.92 53.68 13.04"/><polygon class="cls-1" points="71.44 33.27 73.28 35.15 75.13 33.27 73.28 31.4 71.44 33.27"/><polygon class="cls-1" points="75.78 33.27 77.63 35.15 79.47 33.27 77.63 31.4 75.78 33.27"/><path class="cls-1" d="M100.49,20.66c-.16-.62-.35-1.22-.56-1.8a11.59,11.59,0,0,0-.67-1.56l-2.14,1.19c.25.49.49,1,.71,1.57s.41,1.11.58,1.65a13.3,13.3,0,0,1,.39,1.57,7.32,7.32,0,0,1,.13,1.31,1.15,1.15,0,0,1-.24.68,2,2,0,0,1-.64.57,3.62,3.62,0,0,1-1,.38,4.3,4.3,0,0,1-1.14.15A3.16,3.16,0,0,1,94,25.88a1.61,1.61,0,0,1-.67-1.38c0-.16,0-.59.12-1.28s.16-1.46.26-2.29l-2-.24c0,.26-.08.55-.12.89s-.09.68-.15,1-.11.67-.17,1l-.15.82c-.26,1.31-1.22,2-2.89,2A3.41,3.41,0,0,1,86,25.69a2.74,2.74,0,0,1-.55-.69c.2-.7.39-1.53.58-2.5L84.08,22c-.27,1-.53,1.71-.75,2.29a4.35,4.35,0,0,1-.76,1.31,2,2,0,0,1-1,.59,7.14,7.14,0,0,1-1.5.18c-2.36,0-3.54-.61-3.54-1.84,0-.16,0-.59.12-1.28s.16-1.46.27-2.29l-2-.24c0,.26-.08.55-.12.89s-.09.68-.15,1-.11.67-.17,1-.12.6-.15.82a2.09,2.09,0,0,1-1.18,1.49,7.13,7.13,0,0,1-2.87.44H56c-.6,0-1.16,0-1.7,0s-1,0-1.48-.09a4.78,4.78,0,0,0,1.54-3.63A5.62,5.62,0,0,0,54,20.53a5.39,5.39,0,0,0-1-1.69,5,5,0,0,0-1.49-1.13,4.09,4.09,0,0,0-1.8-.41,4.16,4.16,0,0,0-1.8.41,5.11,5.11,0,0,0-1.49,1.13A5.66,5.66,0,0,0,45,22.59a4.73,4.73,0,0,0,1.55,3.63c-.48,0-1,.07-1.52.09s-1.09,0-1.67,0H18a5.67,5.67,0,0,1-2.62-.56,7.26,7.26,0,0,1-2.17-1.94l-1.75,1.52c1,1.15,1.75,2,2.17,2.59a2.68,2.68,0,0,1,.62,1.28,1.49,1.49,0,0,1-.58,1.07,5.87,5.87,0,0,1-1.52,1A10.05,10.05,0,0,1,10,32a10.86,10.86,0,0,1-2.32.26,5.94,5.94,0,0,1-4-1.26,4.26,4.26,0,0,1-1.47-3.41,8.94,8.94,0,0,1,1.52-4.76l-1.52-.95A11.54,11.54,0,0,0,.6,25,9.66,9.66,0,0,0,0,28.25,6.86,6.86,0,0,0,.54,31a5.92,5.92,0,0,0,1.51,2.11A7,7,0,0,0,4.39,34.5a9.15,9.15,0,0,0,3,.47,11,11,0,0,0,3.14-.47,12.12,12.12,0,0,0,2.8-1.24,7.6,7.6,0,0,0,2-1.73,3,3,0,0,0,.78-1.91,3.56,3.56,0,0,0-.15-.93A5.36,5.36,0,0,0,17,29,6.86,6.86,0,0,0,18,29H43.36a19.77,19.77,0,0,0,3.27-.27,17.67,17.67,0,0,0,3-.77,17.79,17.79,0,0,0,3,.77A19.68,19.68,0,0,0,56,29H70.25a9,9,0,0,0,3.23-.52,3.87,3.87,0,0,0,2-1.47q1.16,2,4.64,2h0a9.89,9.89,0,0,0,2.42-.3,3.29,3.29,0,0,0,1.62-1,3.79,3.79,0,0,0,.37-.48,3.66,3.66,0,0,0,.69.82,4.46,4.46,0,0,0,3,.94,5.78,5.78,0,0,0,2.25-.42A4,4,0,0,0,92,27.41,4.24,4.24,0,0,0,95.72,29a5.48,5.48,0,0,0,3.91-1.31A4.83,4.83,0,0,0,101,24a10.32,10.32,0,0,0-.13-1.56,15.3,15.3,0,0,0-.39-1.8m-50.83,5c-1.82-.6-2.74-1.58-2.74-2.95a2.87,2.87,0,0,1,.21-1.1,2.79,2.79,0,0,1,.58-.89,2.55,2.55,0,0,1,.88-.6,3,3,0,0,1,1.07-.2,2.91,2.91,0,0,1,1.07.2,2.55,2.55,0,0,1,.88.6,2.79,2.79,0,0,1,.58.89,2.87,2.87,0,0,1,.21,1.1c0,1.37-.91,2.35-2.74,2.95"/><path class="cls-1" d="M133.85,26.68A3.28,3.28,0,0,1,133,26a2.2,2.2,0,0,1-.4-.88,5.71,5.71,0,0,1-.11-1.18l.12-14.07-2.35.42.09,13.24c0,.65,0,1.2.07,1.65a4,4,0,0,0,.32,1.2H113.54v-.29a11.3,11.3,0,0,0-1.29-6,4.24,4.24,0,0,0-5.49-1.62,4.45,4.45,0,0,0-1.49,1.21,5.72,5.72,0,0,0-1,1.83,7.07,7.07,0,0,0-.36,2.3,4.44,4.44,0,0,0,1.58,3.66A6.87,6.87,0,0,0,110,28.75h1q-1.45,3-7.08,3.78L105,35a10.85,10.85,0,0,0,5.12-2A8.23,8.23,0,0,0,113,29h18c.21,0,.4,0,.57.06a2.54,2.54,0,0,1,.47.14l.46.21,2.09,1.1L136,27.8l-.83-.39a9.5,9.5,0,0,1-1.32-.73m-23.55-.34q-4.38,0-4.38-2.59a3.43,3.43,0,0,1,.73-2.26,2.38,2.38,0,0,1,1.89-.86,2.44,2.44,0,0,1,2.22,1.46,9.2,9.2,0,0,1,.79,4.25Z"/><polygon class="cls-1" points="137.91 29.02 139.96 29.02 140.11 9.83 137.76 10.24 137.91 29.02"/><polygon class="cls-1" points="153.71 10.04 151.86 8.16 150.02 10.04 151.86 11.91 153.71 10.04"/><polygon class="cls-1" points="158.05 10.04 156.21 8.16 154.36 10.04 156.21 11.91 158.05 10.04"/><path class="cls-1" d="M206.52,17.51l.42,1.07a19.77,19.77,0,0,1,4.58-.9l.21-1.42-.86.08-1,.15a2.88,2.88,0,0,1-1.23-.38.87.87,0,0,1-.46-.75.83.83,0,0,1,.34-.68,1.38,1.38,0,0,1,.88-.27,1.83,1.83,0,0,1,.95.27l.59-.86a2.1,2.1,0,0,0-1.66-.75,2.25,2.25,0,0,0-1.64.67,2.21,2.21,0,0,0-.68,1.62A1.78,1.78,0,0,0,208,17l-.69.24-.77.27"/><polygon class="cls-1" points="218.6 33.27 220.44 35.15 222.29 33.27 220.44 31.4 218.6 33.27"/><polygon class="cls-1" points="214.26 33.27 216.1 35.15 217.95 33.27 216.1 31.4 214.26 33.27"/><path class="cls-1" d="M237.57,21.06a10.55,10.55,0,0,0-1.67-3,12.39,12.39,0,0,0-2.61-2.49,14,14,0,0,0-3.44-1.78l-1,2.29a12.61,12.61,0,0,1,3,1.47,10.21,10.21,0,0,1,2.3,2.07,9.16,9.16,0,0,1,1.48,2.48,7.59,7.59,0,0,1,.52,2.75q0,.69-1,1.11a6.23,6.23,0,0,1-2.44.41h-.68l-.65-.05a4.52,4.52,0,0,0,1.45-3.45,5.51,5.51,0,0,0-.32-1.86,4.89,4.89,0,0,0-.91-1.53,4.26,4.26,0,0,0-1.36-1,3.74,3.74,0,0,0-1.66-.37,3.78,3.78,0,0,0-1.67.37,4.22,4.22,0,0,0-1.35,1,4.84,4.84,0,0,0-.91,1.52,5.18,5.18,0,0,0-.33,1.87,4.58,4.58,0,0,0,1.4,3.36c-.44,0-.89.07-1.37.09s-1,0-1.48,0c-2.37,0-3.55-.61-3.55-1.84,0-.16,0-.59.12-1.28s.17-1.46.27-2.29l-2-.24c0,.26-.08.55-.12.89s-.09.68-.15,1l-.18,1-.15.82a2.1,2.1,0,0,1-1.17,1.49,7.2,7.2,0,0,1-2.87.44c-2.36,0-3.54-.61-3.54-1.84,0-.16,0-.59.11-1.28s.17-1.46.27-2.29l-2-.24c0,.26-.08.55-.12.89s-.09.68-.15,1l-.18,1-.15.82a2.07,2.07,0,0,1-1.17,1.49,7.16,7.16,0,0,1-2.87.44H161.06a3.23,3.23,0,0,1-2.11-.55,2.18,2.18,0,0,1-.63-1.83l.12-10.08-2.35.41v1.82a13.12,13.12,0,0,0-5.61,2.35,4.84,4.84,0,0,0-2,3.9,3.67,3.67,0,0,0,1.43,3,4.59,4.59,0,0,0,1.53.77,6.44,6.44,0,0,0,1.89.27,5.94,5.94,0,0,0,3-.71q.49,3.36,4.79,3.36h42.19a9,9,0,0,0,3.23-.52,3.87,3.87,0,0,0,2-1.47q1.15,2,4.64,2h0a8.87,8.87,0,0,0,3.22-.52,3.78,3.78,0,0,0,2-1.47c.78,1.33,2.32,2,4.65,2a14.54,14.54,0,0,0,2.73-.28,18.92,18.92,0,0,0,2.83-.76,12.15,12.15,0,0,0,2.2.76,9.17,9.17,0,0,0,2.17.28,5.79,5.79,0,0,0,3.93-1.21,4.24,4.24,0,0,0,1.4-3.4,9.8,9.8,0,0,0-.58-3.35m-83.89,2.72a6.81,6.81,0,0,1-1.21-.1,3.7,3.7,0,0,1-1-.33,1.76,1.76,0,0,1-.7-.58,1.49,1.49,0,0,1-.26-.89,1.84,1.84,0,0,1,.47-1.21,4.29,4.29,0,0,1,1.25-1A8.35,8.35,0,0,1,154,19a13,13,0,0,1,2.12-.4l.06,4.79a7.08,7.08,0,0,1-2.5.41m74.89,1.82a4.84,4.84,0,0,1-1.73-1.18,2.29,2.29,0,0,1-.62-1.56,2.34,2.34,0,0,1,.68-1.72,2.3,2.3,0,0,1,1.7-.69,2.25,2.25,0,0,1,1.69.7,2.35,2.35,0,0,1,.69,1.71c0,1.27-.81,2.18-2.41,2.74"/><path class="cls-2" d="M280.25,54.92c0,2.38-.53,6.31-.41,8.71a24.09,24.09,0,0,1-.69,8.41s-13.41.87-19.82.58a2,2,0,0,1-2.06-2.3c.49-3.35-.52-8.17-.76-10.08a81,81,0,0,1-.8-16.41c.73-19.16-.88-19.93-.69-43.83,0,0,10.55,0,18.07,0V5.15c.09,10.75.74,12.58.38,23.68a61.41,61.41,0,0,0,.47,10.93,31.08,31.08,0,0,1,.44,6.71,1.27,1.27,0,0,0,.82,1.45h5.06c0,3.89,0,6.53,0,7"/><path class="cls-3" d="M305.4,72s-13.42.87-19.81.58a2,2,0,0,1-2.09-2.3c.52-3.35-.51-8.17-.74-10.08-.18-1.47-.31-6.18-.41-12.38,2.25-.1,4-.24,4-.24a19.11,19.11,0,0,0,.39-5.6c-.06-1.6.22-4.22.22-5.8,0-1.81.14-3.58,0-5.39-.2-4.81-.33-9.63-.2-14.44C287,10,286.83,5,286.65,0h14c-.1,15.57.81,16.16.39,28.83a64.34,64.34,0,0,0,.46,10.93,30.45,30.45,0,0,1,.44,6.71,1.29,1.29,0,0,0,.84,1.45h3.33c-.05,8.51-.08,14.95,0,15.71a24.56,24.56,0,0,1-.7,8.41"/><path class="cls-1" d="M332.89,54.92c0,2.38-.52,6.31-.39,8.71a24.07,24.07,0,0,1-.7,8.41s-13.42.87-19.81.58a2,2,0,0,1-2.07-2.3c.51-3.35-.53-8.17-.75-10.08-.18-1.44-.32-6.14-.45-12.32h.47c2.81-.11,5.27-.3,5.27-.3a18.42,18.42,0,0,0,.4-5.6c-.08-1.6.22-4.22.22-5.8,0-1.81.14-3.58,0-5.39-.21-4.81-.34-9.63-.19-14.44.18-6.38,0-11.36-.18-16.39h17.54c.15,3.6.73,6.63.39,11s.12,9-.06,14.2c-.25,7.24,0,14.46.34,21.67,0,.49.06,1,.06,1.46,0,2.22-.11,4.42-.13,6.64"/><path class="cls-4" d="M359.42,54.92c0,2.38-.53,6.31-.39,8.71a24.81,24.81,0,0,1-.7,8.41s-13.44.87-19.81.58c-1.41-.06-3.14-1.25-2.95-2.45.51-3.36.7-14.67.66-16.59-.13-5.93-.67-15.17-.66-19.07,0-1.3.2-17.15.33-19,.25-3.5-.34-12.18-.33-15.52h17.19c-.09,15.57.8,16.16.38,28.83a60.53,60.53,0,0,0,.49,10.93,31.24,31.24,0,0,1,.42,6.71,1.29,1.29,0,0,0,.82,1.45h4.48c0,3.86.08,6.46.07,7"/><path class="cls-5" d="M386.39,54.92c0,2.38-.55,6.31-.42,8.71a23.87,23.87,0,0,1-.68,8.41s-13.41.87-19.82.58a2,2,0,0,1-2.07-2.3c.5-3.35-.51-8.17-.76-10.08a85.93,85.93,0,0,1-.91-12v-.36c2.72-.12,5-.3,5-.3a19.08,19.08,0,0,0,.4-5.6c-.08-1.6.22-4.22.22-5.8,0-1.81.14-3.58.05-5.39-.23-4.81-.35-9.63-.2-14.44.19-6.38,0-11.36-.18-16.39H380c-.09,15.57.8,16.16.38,28.83a62.41,62.41,0,0,0,.49,10.93,31.91,31.91,0,0,1,.42,6.71,1.3,1.3,0,0,0,.83,1.45h4.38c0,.29,0,.44,0,.44,0,2.19-.1,4.36-.1,6.56"/><path class="cls-6" d="M413,54.92c0,2.38-.55,6.31-.42,8.71a23.87,23.87,0,0,1-.68,8.41s-13.41.87-19.82.58a2,2,0,0,1-2.07-2.3c.49-3.35-.51-8.17-.76-10.08a85.93,85.93,0,0,1-.91-12v-.36c2.72-.12,5-.3,5-.3a19.43,19.43,0,0,0,.4-5.6c-.08-1.6.22-4.22.22-5.8,0-1.81.13-3.58,0-5.39-.22-4.81-.34-9.63-.2-14.44C394,10,393.83,5,393.67,0h12.92c-.09,15.57.8,16.16.38,28.83a62.41,62.41,0,0,0,.49,10.93,32,32,0,0,1,.41,6.71,1.3,1.3,0,0,0,.84,1.45h4.38c0,.29,0,.44,0,.44,0,2.19-.1,4.36-.1,6.56"/><path class="cls-7" d="M415.39,47.92v.36c0,2.22.12,4.42.12,6.64,0,2.38.53,6.31.4,8.71A24.6,24.6,0,0,0,416.6,72s13.43.87,19.81.58a2,2,0,0,0,2.08-2.3c-.5-3.35.71-8.16.75-10.08.14-5.78,0-28.55,0-32.45-.54-9.55.05-14.74-.44-19.43-.38-3.66.15-6-.11-8.36H422.18c.08,15.57-.81,16.16-.39,28.83a60.53,60.53,0,0,1-.49,10.93,32,32,0,0,0-.41,6.71,1.31,1.31,0,0,1-.83,1.45Z"/><path class="cls-4" d="M441.6,48.37c0,2.18.09,4.36.09,6.55,0,2.38.54,6.31.41,8.71a24.33,24.33,0,0,0,.69,8.41s13.42.87,19.82.58a2,2,0,0,0,2.07-2.3c-.5-3.35.51-8.17.75-10.08a83,83,0,0,0,.91-12v-.37c-2.7-.12-5-.29-5-.29a18.74,18.74,0,0,1-.4-5.6c.08-1.6-.24-4.22-.24-5.8,0-1.81-.11-3.58,0-5.39.23-4.81.36-9.63.22-14.44C460.66,10,460.87,5,461,0H441.59c.1,15.92,0,48.37,0,48.37"/></g></g></svg>